<svg width="24" height="25" viewBox="0 0 24 25" fill="none" xmlns="http://www.w3.org/2000/svg">
<path d="M12 6.40039V19.4004" stroke="black" stroke-width="2" stroke-linecap="round"/>
<path d="M21 6.40039L21 19.4004" stroke="black" stroke-width="2" stroke-linecap="round"/>
<path d="M3 6.40039L3 19.4004" stroke="black" stroke-width="2" stroke-linecap="round"/>
<path d="M21 19.4004C21 19.4004 20 17.4004 16.5 17.4004C13 17.4004 12 19.4004 12 19.4004" stroke="black" stroke-width="2" stroke-linecap="round"/>
<path d="M12 19.4004C12 19.4004 11 17.4004 7.5 17.4004C4 17.4004 3 19.4004 3 19.4004" stroke="black" stroke-width="2" stroke-linecap="round"/>
<path d="M21 6.40039C21 6.40039 20 4.40039 16.5 4.40039C13 4.40039 12 6.40039 12 6.40039" stroke="black" stroke-width="2" stroke-linecap="round"/>
<path d="M12 6.40039C12 6.40039 11 4.40039 7.5 4.40039C4 4.40039 3 6.40039 3 6.40039" stroke="black" stroke-width="2" stroke-linecap="round"/>
</svg>
