<svg width="24" height="25" viewBox="0 0 24 25" fill="none" xmlns="http://www.w3.org/2000/svg">
<path d="M4 7.90039C4 6.01477 4 5.07196 4.58579 4.48618C5.17157 3.90039 6.11438 3.90039 8 3.90039H16C17.8856 3.90039 18.8284 3.90039 19.4142 4.48618C20 5.07196 20 6.01477 20 7.90039V15.9004C20 18.7288 20 20.143 19.1213 21.0217C18.2426 21.9004 16.8284 21.9004 14 21.9004H10C7.17157 21.9004 5.75736 21.9004 4.87868 21.0217C4 20.143 4 18.7288 4 15.9004V7.90039Z" stroke="black" stroke-width="2"/>
<path d="M9 8.90039L15 8.90039" stroke="black" stroke-width="2" stroke-linecap="round"/>
<path d="M9 12.9004L15 12.9004" stroke="black" stroke-width="2" stroke-linecap="round"/>
<path d="M9 16.9004L15 16.9004" stroke="black" stroke-width="2" stroke-linecap="round"/>
</svg>
