<svg width="24" height="24" viewBox="0 0 24 24" fill="none" xmlns="http://www.w3.org/2000/svg">
<g clip-path="url(#clip0_2_7)">
<path d="M7.40005 20.05C7.04255 20.05 6.75005 19.7575 6.75005 19.4V3.8C6.75005 3.4425 7.04255 3.15 7.40005 3.15H13.9V6.4C13.9 7.11906 14.481 7.7 15.2 7.7H18.45V19.4C18.45 19.7575 18.1575 20.05 17.8 20.05H7.40005ZM7.40005 1.2C5.96599 1.2 4.80005 2.36594 4.80005 3.8V19.4C4.80005 20.8341 5.96599 22 7.40005 22H17.8C19.2341 22 20.4 20.8341 20.4 19.4V7.47656C20.4 6.78594 20.1279 6.12375 19.6404 5.63625L15.9597 1.95969C15.4722 1.47219 14.8141 1.2 14.1235 1.2H7.40005ZM9.67505 11.6C9.13474 11.6 8.70005 12.0347 8.70005 12.575C8.70005 13.1153 9.13474 13.55 9.67505 13.55H15.525C16.0654 13.55 16.5 13.1153 16.5 12.575C16.5 12.0347 16.0654 11.6 15.525 11.6H9.67505ZM9.67505 15.5C9.13474 15.5 8.70005 15.9347 8.70005 16.475C8.70005 17.0153 9.13474 17.45 9.67505 17.45H15.525C16.0654 17.45 16.5 17.0153 16.5 16.475C16.5 15.9347 16.0654 15.5 15.525 15.5H9.67505Z" fill="black"/>
</g>
<defs>
<clipPath id="clip0_2_7">
<rect width="15.6" height="20.8" fill="white" transform="translate(4.80005 1.2)"/>
</clipPath>
</defs>
</svg>
