<svg width="20" height="20" viewBox="0 0 20 20" fill="none" xmlns="http://www.w3.org/2000/svg">
<path d="M6.75322 3.19368C7.0626 3.4718 7.0876 3.94368 6.80947 4.25305L4.55947 6.75305C4.42197 6.90618 4.22822 6.9968 4.02197 6.99993C3.81572 7.00305 3.61885 6.92493 3.47197 6.78118L2.21885 5.53118C1.92822 5.23743 1.92822 4.76243 2.21885 4.46868C2.50947 4.17493 2.9876 4.17493 3.27822 4.46868L3.96885 5.1593L5.69072 3.2468C5.96885 2.93743 6.44072 2.91243 6.7501 3.19055L6.75322 3.19368ZM6.75322 8.19368C7.0626 8.4718 7.0876 8.94368 6.80947 9.25305L4.55947 11.7531C4.42197 11.9062 4.22822 11.9968 4.02197 11.9999C3.81572 12.0031 3.61885 11.9249 3.47197 11.7812L2.21885 10.5312C1.9251 10.2374 1.9251 9.76243 2.21885 9.4718C2.5126 9.18118 2.9876 9.17805 3.27822 9.4718L3.96885 10.1624L5.69072 8.24993C5.96885 7.94055 6.44072 7.91555 6.7501 8.19368H6.75322ZM9.0001 4.99993C9.0001 4.4468 9.44697 3.99993 10.0001 3.99993H17.0001C17.5532 3.99993 18.0001 4.4468 18.0001 4.99993C18.0001 5.55305 17.5532 5.99993 17.0001 5.99993H10.0001C9.44697 5.99993 9.0001 5.55305 9.0001 4.99993ZM9.0001 9.99993C9.0001 9.4468 9.44697 8.99993 10.0001 8.99993H17.0001C17.5532 8.99993 18.0001 9.4468 18.0001 9.99993C18.0001 10.5531 17.5532 10.9999 17.0001 10.9999H10.0001C9.44697 10.9999 9.0001 10.5531 9.0001 9.99993ZM7.0001 14.9999C7.0001 14.4468 7.44697 13.9999 8.0001 13.9999H17.0001C17.5532 13.9999 18.0001 14.4468 18.0001 14.9999C18.0001 15.5531 17.5532 15.9999 17.0001 15.9999H8.0001C7.44697 15.9999 7.0001 15.5531 7.0001 14.9999ZM3.5001 13.4999C3.89792 13.4999 4.27945 13.658 4.56076 13.9393C4.84206 14.2206 5.0001 14.6021 5.0001 14.9999C5.0001 15.3978 4.84206 15.7793 4.56076 16.0606C4.27945 16.3419 3.89792 16.4999 3.5001 16.4999C3.10227 16.4999 2.72074 16.3419 2.43944 16.0606C2.15813 15.7793 2.0001 15.3978 2.0001 14.9999C2.0001 14.6021 2.15813 14.2206 2.43944 13.9393C2.72074 13.658 3.10227 13.4999 3.5001 13.4999Z" fill="black"/>
</svg>
