<svg width="750" height="261" viewBox="0 0 750 261" fill="none" xmlns="http://www.w3.org/2000/svg">
<path fill-rule="evenodd" clip-rule="evenodd" d="M164.06 12.2395C147.325 -4.07984 120.192 -4.07984 103.456 12.2395L12.5514 100.886C-4.18379 117.205 -4.18379 143.664 12.5514 159.984L103.456 248.63C120.192 264.949 147.325 264.949 164.06 248.63L254.965 159.984C271.7 143.664 271.7 117.205 254.965 100.886L164.06 12.2395ZM96.6972 139.049C96.6791 142.099 96.7334 145.168 97.0588 148.218C97.1143 148.714 97.184 149.21 97.2534 149.704C97.3196 150.175 97.3856 150.645 97.4386 151.11C97.1782 151.279 96.9178 151.268 96.6574 151.257C96.6416 151.256 96.6257 151.255 96.6099 151.255C96.5606 151.253 96.5114 151.251 96.4621 151.251H85.305C85.2568 151.251 85.2086 151.249 85.1603 151.247C85.0639 151.243 84.9675 151.239 84.871 151.251C84.4009 151.304 84.2562 151.075 84.2381 150.634C84.2057 149.728 84.1539 148.828 84.102 147.927L84.1019 147.925C84.067 147.318 84.0321 146.712 84.003 146.102C83.9913 145.862 83.9948 145.622 83.9987 145.353C84.0008 145.207 84.003 145.053 84.003 144.885C83.5494 145.037 83.3847 145.309 83.2302 145.563C83.1876 145.633 83.1458 145.702 83.0989 145.767C81.2725 148.306 79.0303 150.317 75.9743 151.375C74.0756 152.045 72.1045 152.292 70.1154 152.239C67.2222 152.168 64.3832 151.692 61.7431 150.422C57.9819 148.624 55.6492 145.785 54.962 141.711C54.9078 141.394 54.8535 141.077 54.5642 140.865V137.691C54.8841 137.528 54.9217 137.226 54.958 136.935C54.9622 136.902 54.9664 136.868 54.9709 136.835C54.9738 136.815 54.9768 136.794 54.9801 136.774C55.6311 133.053 57.7649 130.338 61.074 128.486C63.6779 127.023 66.535 126.264 69.4825 125.841C73.7501 125.224 78.0357 125.171 82.3213 125.788C83.1893 125.912 83.2616 125.859 83.1712 124.995C82.9181 122.597 81.7969 120.798 79.5004 119.775C78.4154 119.281 77.2581 118.982 76.0647 118.894C71.3631 118.559 66.752 119.017 62.3579 120.798C61.9945 120.951 61.6417 121.115 61.2909 121.278C60.9964 121.414 60.7019 121.551 60.405 121.68C60.1485 121.541 60.1727 121.336 60.1945 121.152C60.2004 121.102 60.206 121.054 60.206 121.01L60.2005 120.809C60.13 118.267 60.06 115.741 60.0071 113.198C59.9892 112.305 60.0069 112.299 60.8202 111.988L60.8389 111.981C64.4013 110.641 68.1082 109.9 71.9056 109.583C74.6723 109.354 77.439 109.266 80.2237 109.565C83.4425 109.918 86.5346 110.659 89.3556 112.299C93.388 114.644 95.5941 118.153 96.4079 122.579C96.6429 123.796 96.6972 125.03 96.6972 126.264V139.049ZM68.4518 139.542C68.9943 141.218 70.2963 142.135 71.9599 142.523C78.759 144.145 82.9904 138.643 83.2074 133.653C83.2255 133.265 83.0989 133.089 82.6649 133.071C81.8169 133.036 80.9733 132.996 80.1297 132.957L80.1243 132.956C79.2789 132.917 78.4335 132.877 77.5836 132.842C76.4987 132.789 75.4137 132.912 74.3468 133.053C72.9002 133.23 71.5078 133.6 70.2963 134.429C68.5965 135.575 67.837 137.656 68.4518 139.542ZM135.81 121.874C135.304 121.627 134.834 121.398 134.328 121.186C131.073 119.775 127.673 119.317 124.183 120.11C119.753 121.133 116.751 124.519 116.136 128.909C115.829 131.078 115.901 133.212 116.823 135.222C118.559 139.013 121.706 141.059 125.811 141.711C129.246 142.24 132.574 141.694 135.792 140.477C135.942 140.42 136.092 140.36 136.238 140.301C136.41 140.231 136.576 140.164 136.733 140.107C136.954 140.164 136.959 140.281 136.963 140.389C136.963 140.404 136.964 140.42 136.965 140.435C136.966 140.443 136.966 140.451 136.968 140.459C136.998 141.472 137.025 142.484 137.053 143.494C137.11 145.544 137.166 147.591 137.239 149.647C137.257 150.246 137.058 150.511 136.461 150.687C134.201 151.339 131.904 151.763 129.572 152.027C125.141 152.521 120.765 152.256 116.498 151.004C111.652 149.576 107.583 147.037 104.654 142.946C102.628 140.107 101.561 136.933 101.164 133.512C100.784 130.091 101.091 126.758 102.212 123.514C104.238 117.73 108.343 113.815 114.075 111.505C118.451 109.742 123.044 109.195 127.764 109.513C130.603 109.707 133.351 110.2 135.973 111.276C136.97 111.685 136.969 111.699 136.869 112.641L136.859 112.739C136.588 115.296 136.335 117.853 136.082 120.41C136.075 120.489 136.071 120.569 136.066 120.65C136.044 121.039 136.02 121.45 135.81 121.874ZM155.956 117.343C155.88 117.508 155.792 117.699 155.43 117.73V111.382C155.43 110.412 155.43 110.394 154.436 110.394H143.279C142.266 110.394 142.248 110.394 142.248 111.364V150.369C142.248 151.269 142.266 151.286 143.206 151.286H155.774C156.714 151.286 156.714 151.269 156.732 150.371L156.732 133.67C156.732 132.119 156.859 130.585 157.148 129.05C157.492 127.164 158.088 125.365 159.282 123.796C161.09 121.433 164.02 120.833 166.443 121.345C168.396 121.75 169.499 123.126 170.15 124.871C170.71 126.37 170.837 127.957 170.837 129.544V149.946C170.837 150.029 170.839 150.111 170.841 150.193C170.845 150.358 170.849 150.522 170.837 150.687C170.801 151.163 171.054 151.304 171.488 151.269C171.608 151.257 171.729 151.261 171.849 151.265C171.91 151.267 171.97 151.269 172.03 151.269H184.815C185.177 151.286 185.339 151.11 185.321 150.757C185.309 150.593 185.313 150.428 185.317 150.264C185.319 150.181 185.321 150.099 185.321 150.017C185.321 148.288 185.323 146.561 185.325 144.835C185.329 141.385 185.333 137.937 185.321 134.482C185.321 132.965 185.357 131.449 185.574 129.95C185.827 128.151 186.261 126.423 187.166 124.818C188.034 123.302 189.227 122.103 190.981 121.574C194.941 120.392 197.997 121.715 199.01 125.788C199.281 126.899 199.408 128.01 199.408 129.139V150.81C199.408 151.092 199.516 151.269 199.842 151.269H212.735C213.362 151.269 213.651 151.286 213.784 151.154C213.92 151.019 213.892 150.728 213.892 150.105C213.892 147.765 213.89 145.427 213.888 143.089C213.884 138.417 213.88 133.746 213.892 129.068C213.892 127.164 213.838 125.277 213.729 123.372C213.639 121.574 213.35 119.793 212.843 118.065C211.523 113.48 208.467 110.712 203.675 109.812C201.18 109.354 198.666 109.23 196.135 109.601C192.428 110.147 189.173 111.593 186.515 114.256C185.847 114.92 185.283 115.664 184.72 116.405C184.536 116.648 184.351 116.891 184.164 117.13C183.922 116.95 183.815 116.716 183.71 116.487C183.681 116.424 183.652 116.362 183.621 116.301C182.102 113.339 179.734 111.346 176.551 110.271C173.278 109.16 169.951 109.142 166.605 109.812C161.958 110.747 158.287 113.092 155.991 117.271C155.979 117.294 155.968 117.318 155.956 117.343Z" fill="url(#paint0_linear_2779_1223)"/>
<path d="M289.902 86.1884L300.873 56.9366H307.044L318.014 86.1884H312.186L309.786 79.4187H298.087L295.645 86.1884H289.902ZM299.587 75.2399H308.286L303.915 63.0795L299.587 75.2399Z" fill="url(#paint1_linear_2779_1223)"/>
<path d="M330.534 86.6899C328.649 86.6899 326.992 86.3974 325.563 85.8123C324.135 85.1995 322.992 84.3637 322.135 83.3051C321.278 82.2464 320.764 81.0206 320.592 79.6277H326.121C326.292 80.4356 326.749 81.1321 327.492 81.7171C328.263 82.2743 329.249 82.5529 330.449 82.5529C331.649 82.5529 332.52 82.3161 333.063 81.8425C333.634 81.3689 333.92 80.8256 333.92 80.2127C333.92 79.3212 333.52 78.7223 332.72 78.4158C331.92 78.0815 330.806 77.7611 329.377 77.4547C328.463 77.2597 327.535 77.0229 326.592 76.7443C325.649 76.4657 324.778 76.1175 323.978 75.6996C323.207 75.2538 322.578 74.6967 322.092 74.028C321.607 73.3316 321.364 72.4819 321.364 71.479C321.364 69.6403 322.107 68.0941 323.592 66.8404C325.106 65.5868 327.22 64.96 329.934 64.96C332.448 64.96 334.448 65.5311 335.934 66.6733C337.448 67.8155 338.348 69.3895 338.634 71.3954H333.448C333.134 69.8631 331.949 69.097 329.892 69.097C328.863 69.097 328.063 69.292 327.492 69.6821C326.949 70.0721 326.678 70.5596 326.678 71.1446C326.678 71.7575 327.092 72.2451 327.92 72.6072C328.749 72.9694 329.849 73.3037 331.22 73.6102C332.706 73.9445 334.063 74.3206 335.291 74.7384C336.548 75.1285 337.548 75.7274 338.291 76.5353C339.034 77.3154 339.405 78.4437 339.405 79.9202C339.434 81.2017 339.091 82.3578 338.376 83.3886C337.662 84.4194 336.634 85.2273 335.291 85.8123C333.948 86.3974 332.363 86.6899 330.534 86.6899Z" fill="url(#paint2_linear_2779_1223)"/>
<path d="M353.049 86.6899C351.163 86.6899 349.506 86.3974 348.078 85.8123C346.65 85.1995 345.507 84.3637 344.65 83.3051C343.793 82.2464 343.278 81.0206 343.107 79.6277H348.635C348.807 80.4356 349.264 81.1321 350.006 81.7171C350.778 82.2743 351.763 82.5529 352.963 82.5529C354.163 82.5529 355.034 82.3161 355.577 81.8425C356.149 81.3689 356.434 80.8256 356.434 80.2127C356.434 79.3212 356.034 78.7223 355.234 78.4158C354.435 78.0815 353.32 77.7611 351.892 77.4547C350.978 77.2597 350.049 77.0229 349.106 76.7443C348.164 76.4657 347.292 76.1175 346.492 75.6996C345.721 75.2538 345.093 74.6967 344.607 74.028C344.121 73.3316 343.878 72.4819 343.878 71.479C343.878 69.6403 344.621 68.0941 346.107 66.8404C347.621 65.5868 349.735 64.96 352.449 64.96C354.963 64.96 356.963 65.5311 358.448 66.6733C359.963 67.8155 360.862 69.3895 361.148 71.3954H355.963C355.649 69.8631 354.463 69.097 352.406 69.097C351.378 69.097 350.578 69.292 350.006 69.6821C349.464 70.0721 349.192 70.5596 349.192 71.1446C349.192 71.7575 349.606 72.2451 350.435 72.6072C351.263 72.9694 352.363 73.3037 353.735 73.6102C355.22 73.9445 356.577 74.3206 357.806 74.7384C359.063 75.1285 360.063 75.7274 360.805 76.5353C361.548 77.3154 361.92 78.4437 361.92 79.9202C361.948 81.2017 361.605 82.3578 360.891 83.3886C360.177 84.4194 359.148 85.2273 357.806 85.8123C356.463 86.3974 354.877 86.6899 353.049 86.6899Z" fill="url(#paint3_linear_2779_1223)"/>
<path d="M376.978 86.6899C374.921 86.6899 373.064 86.2302 371.407 85.3109C369.778 84.3915 368.479 83.124 367.507 81.5082C366.564 79.8645 366.093 77.9701 366.093 75.8249C366.093 73.6798 366.579 71.7993 367.55 70.1835C368.521 68.5398 369.821 67.2583 371.45 66.339C373.107 65.4196 374.964 64.96 377.021 64.96C379.049 64.96 380.877 65.4196 382.506 66.339C384.163 67.2583 385.463 68.5398 386.405 70.1835C387.377 71.7993 387.862 73.6798 387.862 75.8249C387.862 77.9701 387.377 79.8645 386.405 81.5082C385.463 83.124 384.163 84.3915 382.506 85.3109C380.849 86.2302 379.006 86.6899 376.978 86.6899ZM376.978 82.0514C378.406 82.0514 379.649 81.536 380.706 80.5052C381.763 79.4466 382.292 77.8865 382.292 75.8249C382.292 73.7634 381.763 72.2172 380.706 71.1864C379.649 70.1278 378.42 69.5985 377.021 69.5985C375.564 69.5985 374.307 70.1278 373.249 71.1864C372.221 72.2172 371.707 73.7634 371.707 75.8249C371.707 77.8865 372.221 79.4466 373.249 80.5052C374.307 81.536 375.549 82.0514 376.978 82.0514Z" fill="url(#paint4_linear_2779_1223)"/>
<path d="M403.18 86.6899C401.009 86.6899 399.095 86.2302 397.438 85.3109C395.781 84.3915 394.467 83.11 393.495 81.4664C392.552 79.8227 392.081 77.9422 392.081 75.8249C392.081 73.7077 392.552 71.8272 393.495 70.1835C394.467 68.5398 395.781 67.2583 397.438 66.339C399.095 65.4196 401.009 64.96 403.18 64.96C405.894 64.96 408.18 65.6564 410.037 67.0494C411.893 68.4145 413.079 70.3089 413.593 72.7326H407.808C407.522 71.7297 406.951 70.9496 406.094 70.3925C405.266 69.8074 404.28 69.5149 403.137 69.5149C401.623 69.5149 400.337 70.0721 399.28 71.1864C398.223 72.3008 397.695 73.847 397.695 75.8249C397.695 77.8029 398.223 79.3491 399.28 80.4634C400.337 81.5778 401.623 82.135 403.137 82.135C404.28 82.135 405.266 81.8564 406.094 81.2992C406.951 80.742 407.522 79.9481 407.808 78.9173H413.593C413.079 81.2574 411.893 83.1379 410.037 84.5587C408.18 85.9795 405.894 86.6899 403.18 86.6899Z" fill="url(#paint5_linear_2779_1223)"/>
<path d="M421.419 62.2437C420.419 62.2437 419.59 61.9512 418.933 61.3662C418.305 60.7811 417.99 60.0429 417.99 59.1514C417.99 58.2599 418.305 57.5356 418.933 56.9784C419.59 56.3934 420.419 56.1008 421.419 56.1008C422.419 56.1008 423.233 56.3934 423.861 56.9784C424.518 57.5356 424.847 58.2599 424.847 59.1514C424.847 60.0429 424.518 60.7811 423.861 61.3662C423.233 61.9512 422.419 62.2437 421.419 62.2437ZM418.676 86.1884V65.4614H424.161V86.1884H418.676Z" fill="url(#paint6_linear_2779_1223)"/>
<path d="M437.214 86.6899C435.386 86.6899 433.886 86.4113 432.715 85.8541C431.543 85.2691 430.672 84.503 430.101 83.5558C429.529 82.6086 429.244 81.5639 429.244 80.4217C429.244 78.4994 430.015 76.9393 431.558 75.7414C433.1 74.5434 435.415 73.9445 438.5 73.9445H443.899V73.443C443.899 72.0222 443.485 70.9775 442.657 70.3089C441.828 69.6403 440.8 69.306 439.571 69.306C438.457 69.306 437.486 69.5706 436.657 70.0999C435.829 70.6014 435.315 71.3536 435.115 72.3565H429.758C429.901 70.8521 430.415 69.5428 431.301 68.4284C432.215 67.3141 433.386 66.4643 434.815 65.8793C436.243 65.2664 437.843 64.96 439.614 64.96C442.642 64.96 445.028 65.6982 446.771 67.1748C448.513 68.6513 449.385 70.7407 449.385 73.443V86.1884H444.714L444.199 82.8454C443.571 83.9597 442.685 84.8791 441.542 85.6034C440.428 86.3277 438.986 86.6899 437.214 86.6899ZM438.457 82.5111C440.028 82.5111 441.243 82.0096 442.1 81.0067C442.985 80.0038 443.542 78.764 443.771 77.2875H439.1C437.643 77.2875 436.6 77.5522 435.972 78.0815C435.343 78.583 435.029 79.2098 435.029 79.962C435.029 80.7699 435.343 81.3967 435.972 81.8425C436.6 82.2882 437.429 82.5111 438.457 82.5111Z" fill="url(#paint7_linear_2779_1223)"/>
<path d="M463.797 86.1884C461.568 86.1884 459.783 85.6591 458.44 84.6005C457.097 83.5418 456.426 81.6614 456.426 78.9591V69.9328H452.783V65.4614H456.426L457.069 59.9036H461.911V65.4614H467.653V69.9328H461.911V79.0009C461.911 80.0038 462.125 80.7002 462.554 81.0903C463.011 81.4524 463.782 81.6335 464.868 81.6335H467.525V86.1884H463.797Z" fill="url(#paint8_linear_2779_1223)"/>
<path d="M475.32 62.2437C474.32 62.2437 473.491 61.9512 472.834 61.3662C472.206 60.7811 471.892 60.0429 471.892 59.1514C471.892 58.2599 472.206 57.5356 472.834 56.9784C473.491 56.3934 474.32 56.1008 475.32 56.1008C476.32 56.1008 477.134 56.3934 477.762 56.9784C478.419 57.5356 478.748 58.2599 478.748 59.1514C478.748 60.0429 478.419 60.7811 477.762 61.3662C477.134 61.9512 476.32 62.2437 475.32 62.2437ZM472.577 86.1884V65.4614H478.062V86.1884H472.577Z" fill="url(#paint9_linear_2779_1223)"/>
<path d="M493.987 86.6899C491.93 86.6899 490.073 86.2302 488.416 85.3109C486.787 84.3915 485.487 83.124 484.516 81.5082C483.573 79.8645 483.102 77.9701 483.102 75.8249C483.102 73.6798 483.588 71.7993 484.559 70.1835C485.53 68.5398 486.83 67.2583 488.459 66.339C490.116 65.4196 491.973 64.96 494.029 64.96C496.058 64.96 497.886 65.4196 499.515 66.339C501.172 67.2583 502.472 68.5398 503.414 70.1835C504.386 71.7993 504.871 73.6798 504.871 75.8249C504.871 77.9701 504.386 79.8645 503.414 81.5082C502.472 83.124 501.172 84.3915 499.515 85.3109C497.858 86.2302 496.015 86.6899 493.987 86.6899ZM493.987 82.0514C495.415 82.0514 496.658 81.536 497.715 80.5052C498.772 79.4466 499.3 77.8865 499.3 75.8249C499.3 73.7634 498.772 72.2172 497.715 71.1864C496.658 70.1278 495.429 69.5985 494.029 69.5985C492.572 69.5985 491.315 70.1278 490.258 71.1864C489.23 72.2172 488.716 73.7634 488.716 75.8249C488.716 77.8865 489.23 79.4466 490.258 80.5052C491.315 81.536 492.558 82.0514 493.987 82.0514Z" fill="url(#paint10_linear_2779_1223)"/>
<path d="M509.776 86.1884V65.4614H514.618L515.047 68.9716C515.704 67.7459 516.646 66.7708 517.875 66.0465C519.132 65.3221 520.603 64.96 522.289 64.96C524.917 64.96 526.96 65.7679 528.417 67.3837C529.874 68.9995 530.602 71.3675 530.602 74.4877V86.1884H525.117V74.9892C525.117 73.2062 524.746 71.8411 524.003 70.8939C523.26 69.9467 522.103 69.4731 520.532 69.4731C518.989 69.4731 517.718 70.0024 516.718 71.0611C515.746 72.1197 515.261 73.5962 515.261 75.4906V86.1884H509.776Z" fill="url(#paint11_linear_2779_1223)"/>
<path d="M547.044 86.1884V69.9328H544.13V65.4614H547.044V63.0377C547.044 60.5304 547.687 58.7474 548.972 57.6888C550.287 56.6302 552.058 56.1008 554.286 56.1008H556.643V60.6558H555.143C554.201 60.6558 553.529 60.8369 553.129 61.199C552.729 61.5612 552.529 62.1741 552.529 63.0377V65.4614H557.114V69.9328H552.529V86.1884H547.044Z" fill="url(#paint12_linear_2779_1223)"/>
<path d="M570.821 86.6899C568.764 86.6899 566.907 86.2302 565.25 85.3109C563.621 84.3915 562.322 83.124 561.35 81.5082C560.407 79.8645 559.936 77.9701 559.936 75.8249C559.936 73.6798 560.422 71.7993 561.393 70.1835C562.364 68.5398 563.664 67.2583 565.293 66.339C566.95 65.4196 568.807 64.96 570.864 64.96C572.892 64.96 574.72 65.4196 576.349 66.339C578.006 67.2583 579.306 68.5398 580.248 70.1835C581.22 71.7993 581.705 73.6798 581.705 75.8249C581.705 77.9701 581.22 79.8645 580.248 81.5082C579.306 83.124 578.006 84.3915 576.349 85.3109C574.692 86.2302 572.849 86.6899 570.821 86.6899ZM570.821 82.0514C572.249 82.0514 573.492 81.536 574.549 80.5052C575.606 79.4466 576.135 77.8865 576.135 75.8249C576.135 73.7634 575.606 72.2172 574.549 71.1864C573.492 70.1278 572.263 69.5985 570.864 69.5985C569.407 69.5985 568.15 70.1278 567.093 71.1864C566.064 72.2172 565.55 73.7634 565.55 75.8249C565.55 77.8865 566.064 79.4466 567.093 80.5052C568.15 81.536 569.392 82.0514 570.821 82.0514Z" fill="url(#paint13_linear_2779_1223)"/>
<path d="M586.61 86.1884V65.4614H591.495L592.009 69.3477C592.781 68.0105 593.823 66.9519 595.138 66.1718C596.48 65.3639 598.052 64.96 599.851 64.96V70.6014H598.309C597.109 70.6014 596.037 70.7825 595.095 71.1446C594.152 71.5068 593.409 72.1336 592.866 73.0251C592.352 73.9166 592.095 75.1563 592.095 76.7443V86.1884H586.61Z" fill="url(#paint14_linear_2779_1223)"/>
<path d="M305.415 141.537C302.387 141.537 299.787 140.91 297.616 139.657C295.445 138.375 293.773 136.606 292.602 134.35C291.431 132.065 290.845 129.432 290.845 126.452C290.845 123.471 291.431 120.838 292.602 118.554C293.773 116.269 295.445 114.486 297.616 113.205C299.787 111.923 302.387 111.282 305.415 111.282C309.015 111.282 311.957 112.16 314.243 113.915C316.557 115.642 318 118.08 318.571 121.228H312.529C312.157 119.64 311.357 118.4 310.129 117.509C308.929 116.589 307.329 116.13 305.329 116.13C302.558 116.13 300.387 117.049 298.816 118.888C297.245 120.727 296.459 123.248 296.459 126.452C296.459 129.655 297.245 132.177 298.816 134.015C300.387 135.826 302.558 136.731 305.329 136.731C307.329 136.731 308.929 136.314 310.129 135.478C311.357 134.614 312.157 133.43 312.529 131.926H318.571C318 134.935 316.557 137.289 314.243 138.988C311.957 140.687 309.015 141.537 305.415 141.537Z" fill="url(#paint15_linear_2779_1223)"/>
<path d="M333.497 141.537C331.44 141.537 329.583 141.077 327.926 140.158C326.298 139.239 324.998 137.971 324.026 136.355C323.084 134.712 322.612 132.817 322.612 130.672C322.612 128.527 323.098 126.647 324.069 125.031C325.041 123.387 326.34 122.106 327.969 121.186C329.626 120.267 331.483 119.807 333.54 119.807C335.568 119.807 337.397 120.267 339.025 121.186C340.682 122.106 341.982 123.387 342.925 125.031C343.896 126.647 344.382 128.527 344.382 130.672C344.382 132.817 343.896 134.712 342.925 136.355C341.982 137.971 340.682 139.239 339.025 140.158C337.368 141.077 335.525 141.537 333.497 141.537ZM333.497 136.899C334.925 136.899 336.168 136.383 337.225 135.352C338.282 134.294 338.811 132.734 338.811 130.672C338.811 128.611 338.282 127.064 337.225 126.034C336.168 124.975 334.94 124.446 333.54 124.446C332.083 124.446 330.826 124.975 329.769 126.034C328.74 127.064 328.226 128.611 328.226 130.672C328.226 132.734 328.74 134.294 329.769 135.352C330.826 136.383 332.069 136.899 333.497 136.899Z" fill="url(#paint16_linear_2779_1223)"/>
<path d="M349.286 141.036V120.309H354.128L354.6 123.108C355.285 122.106 356.185 121.312 357.299 120.727C358.442 120.114 359.756 119.807 361.242 119.807C364.527 119.807 366.856 121.047 368.227 123.526C368.998 122.384 370.027 121.479 371.312 120.81C372.627 120.141 374.055 119.807 375.598 119.807C378.369 119.807 380.497 120.615 381.983 122.231C383.468 123.847 384.211 126.215 384.211 129.335V141.036H378.726V129.836C378.726 128.053 378.369 126.688 377.655 125.741C376.969 124.794 375.898 124.32 374.441 124.32C372.955 124.32 371.755 124.85 370.841 125.908C369.955 126.967 369.513 128.443 369.513 130.338V141.036H364.027V129.836C364.027 128.053 363.67 126.688 362.956 125.741C362.242 124.794 361.142 124.32 359.656 124.32C358.199 124.32 357.014 124.85 356.1 125.908C355.214 126.967 354.771 128.443 354.771 130.338V141.036H349.286Z" fill="url(#paint17_linear_2779_1223)"/>
<path d="M389.419 150.229V120.309H394.304L394.904 123.276C395.59 122.356 396.49 121.548 397.604 120.852C398.746 120.155 400.218 119.807 402.018 119.807C404.017 119.807 405.803 120.281 407.374 121.228C408.946 122.175 410.188 123.471 411.102 125.114C412.017 126.758 412.474 128.625 412.474 130.714C412.474 132.803 412.017 134.67 411.102 136.314C410.188 137.929 408.946 139.211 407.374 140.158C405.803 141.077 404.017 141.537 402.018 141.537C400.418 141.537 399.018 141.245 397.818 140.66C396.618 140.075 395.647 139.253 394.904 138.194V150.229H389.419ZM400.861 136.857C402.603 136.857 404.046 136.286 405.189 135.143C406.331 134.001 406.903 132.525 406.903 130.714C406.903 128.903 406.331 127.413 405.189 126.243C404.046 125.072 402.603 124.487 400.861 124.487C399.089 124.487 397.632 125.072 396.49 126.243C395.375 127.385 394.818 128.861 394.818 130.672C394.818 132.483 395.375 133.973 396.49 135.143C397.632 136.286 399.089 136.857 400.861 136.857Z" fill="url(#paint18_linear_2779_1223)"/>
<path d="M425.344 141.537C422.688 141.537 420.631 140.729 419.174 139.113C417.745 137.498 417.031 135.13 417.031 132.009V120.309H422.473V131.508C422.473 133.291 422.845 134.656 423.587 135.603C424.33 136.55 425.502 137.024 427.101 137.024C428.615 137.024 429.858 136.495 430.83 135.436C431.829 134.377 432.329 132.901 432.329 131.006V120.309H437.815V141.036H432.972L432.544 137.525C431.887 138.751 430.93 139.726 429.673 140.451C428.444 141.175 427.001 141.537 425.344 141.537Z" fill="url(#paint19_linear_2779_1223)"/>
<path d="M452.916 141.036C450.688 141.036 448.902 140.506 447.559 139.448C446.217 138.389 445.545 136.509 445.545 133.806V124.78H441.903V120.309H445.545L446.188 114.751H451.03V120.309H456.773V124.78H451.03V133.848C451.03 134.851 451.245 135.547 451.673 135.937C452.13 136.3 452.902 136.481 453.987 136.481H456.644V141.036H452.916Z" fill="url(#paint20_linear_2779_1223)"/>
<path d="M464.439 117.091C463.439 117.091 462.611 116.798 461.954 116.213C461.325 115.628 461.011 114.89 461.011 113.999C461.011 113.107 461.325 112.383 461.954 111.826C462.611 111.241 463.439 110.948 464.439 110.948C465.439 110.948 466.253 111.241 466.882 111.826C467.539 112.383 467.867 113.107 467.867 113.999C467.867 114.89 467.539 115.628 466.882 116.213C466.253 116.798 465.439 117.091 464.439 117.091ZM461.696 141.036V120.309H467.182V141.036H461.696Z" fill="url(#paint21_linear_2779_1223)"/>
<path d="M472.907 141.036V120.309H477.749L478.178 123.819C478.835 122.593 479.778 121.618 481.006 120.894C482.263 120.169 483.734 119.807 485.42 119.807C488.048 119.807 490.091 120.615 491.548 122.231C493.005 123.847 493.733 126.215 493.733 129.335V141.036H488.248V129.836C488.248 128.053 487.877 126.688 487.134 125.741C486.391 124.794 485.234 124.32 483.663 124.32C482.12 124.32 480.849 124.85 479.849 125.908C478.878 126.967 478.392 128.443 478.392 130.338V141.036H472.907Z" fill="url(#paint22_linear_2779_1223)"/>
<path d="M507.978 134.851C506.949 134.851 505.992 134.74 505.107 134.517L503.521 136.063C504.007 136.314 504.664 136.522 505.492 136.69C506.321 136.857 507.664 137.024 509.521 137.191C512.349 137.442 514.406 138.097 515.691 139.155C516.977 140.214 517.62 141.676 517.62 143.543C517.62 144.769 517.277 145.925 516.591 147.011C515.906 148.126 514.849 149.017 513.42 149.686C511.992 150.382 510.163 150.731 507.935 150.731C504.907 150.731 502.464 150.173 500.607 149.059C498.75 147.973 497.822 146.329 497.822 144.128C497.822 142.261 498.75 140.646 500.607 139.281C500.036 139.03 499.536 138.765 499.107 138.487C498.707 138.208 498.35 137.915 498.036 137.609V136.648L501.764 132.803C500.107 131.383 499.279 129.558 499.279 127.329C499.279 125.936 499.621 124.669 500.307 123.526C501.021 122.384 502.021 121.479 503.307 120.81C504.592 120.141 506.149 119.807 507.978 119.807C509.178 119.807 510.292 119.974 511.32 120.309H519.377V123.568L515.734 123.819C516.306 124.877 516.591 126.048 516.591 127.329C516.591 128.722 516.248 129.99 515.563 131.132C514.877 132.274 513.877 133.179 512.563 133.848C511.277 134.517 509.749 134.851 507.978 134.851ZM507.978 130.756C509.092 130.756 510.006 130.463 510.72 129.878C511.463 129.293 511.835 128.457 511.835 127.371C511.835 126.284 511.463 125.449 510.72 124.864C510.006 124.279 509.092 123.986 507.978 123.986C506.806 123.986 505.864 124.279 505.149 124.864C504.435 125.449 504.078 126.284 504.078 127.371C504.078 128.457 504.435 129.293 505.149 129.878C505.864 130.463 506.806 130.756 507.978 130.756ZM502.835 143.585C502.835 144.616 503.321 145.382 504.292 145.883C505.292 146.412 506.506 146.677 507.935 146.677C509.306 146.677 510.42 146.398 511.278 145.841C512.135 145.312 512.563 144.588 512.563 143.668C512.563 142.916 512.277 142.289 511.706 141.788C511.163 141.286 510.063 140.98 508.406 140.868C507.235 140.785 506.149 140.66 505.149 140.492C504.321 140.938 503.721 141.426 503.35 141.955C503.007 142.484 502.835 143.028 502.835 143.585Z" fill="url(#paint23_linear_2779_1223)"/>
<path d="M533.716 141.036V111.784H540.23L549.786 130.338L559.214 111.784H565.727V141.036H560.242V120.852L551.886 136.857H547.558L539.201 120.852V141.036H533.716Z" fill="url(#paint24_linear_2779_1223)"/>
<path d="M578.747 141.537C576.918 141.537 575.418 141.259 574.247 140.701C573.076 140.116 572.204 139.35 571.633 138.403C571.062 137.456 570.776 136.411 570.776 135.269C570.776 133.347 571.547 131.786 573.09 130.589C574.633 129.391 576.947 128.792 580.032 128.792H585.432V128.29C585.432 126.869 585.017 125.825 584.189 125.156C583.36 124.487 582.332 124.153 581.104 124.153C579.989 124.153 579.018 124.418 578.189 124.947C577.361 125.449 576.847 126.201 576.647 127.204H571.29C571.433 125.699 571.947 124.39 572.833 123.276C573.747 122.161 574.918 121.312 576.347 120.727C577.775 120.114 579.375 119.807 581.146 119.807C584.175 119.807 586.56 120.545 588.303 122.022C590.045 123.498 590.917 125.588 590.917 128.29V141.036H586.246L585.732 137.693C585.103 138.807 584.217 139.726 583.075 140.451C581.961 141.175 580.518 141.537 578.747 141.537ZM579.989 137.358C581.561 137.358 582.775 136.857 583.632 135.854C584.517 134.851 585.075 133.611 585.303 132.135H580.632C579.175 132.135 578.132 132.399 577.504 132.929C576.875 133.43 576.561 134.057 576.561 134.809C576.561 135.617 576.875 136.244 577.504 136.69C578.132 137.135 578.961 137.358 579.989 137.358Z" fill="url(#paint25_linear_2779_1223)"/>
<path d="M606.565 141.537C604.393 141.537 602.479 141.077 600.822 140.158C599.165 139.239 597.851 137.957 596.88 136.314C595.937 134.67 595.466 132.789 595.466 130.672C595.466 128.555 595.937 126.674 596.88 125.031C597.851 123.387 599.165 122.106 600.822 121.186C602.479 120.267 604.393 119.807 606.565 119.807C609.279 119.807 611.564 120.504 613.421 121.897C615.278 123.262 616.464 125.156 616.978 127.58H611.193C610.907 126.577 610.336 125.797 609.479 125.24C608.65 124.655 607.664 124.362 606.522 124.362C605.008 124.362 603.722 124.919 602.665 126.034C601.608 127.148 601.079 128.694 601.079 130.672C601.079 132.65 601.608 134.196 602.665 135.311C603.722 136.425 605.008 136.982 606.522 136.982C607.664 136.982 608.65 136.704 609.479 136.146C610.336 135.589 610.907 134.795 611.193 133.764H616.978C616.464 136.105 615.278 137.985 613.421 139.406C611.564 140.827 609.279 141.537 606.565 141.537Z" fill="url(#paint26_linear_2779_1223)"/>
<path d="M621.846 141.036V110.948H627.332V123.485C628.046 122.342 629.003 121.451 630.203 120.81C631.431 120.141 632.831 119.807 634.402 119.807C637.031 119.807 639.059 120.615 640.487 122.231C641.944 123.847 642.673 126.215 642.673 129.335V141.036H637.231V129.836C637.231 128.053 636.859 126.688 636.116 125.741C635.402 124.794 634.259 124.32 632.688 124.32C631.145 124.32 629.86 124.85 628.831 125.908C627.831 126.967 627.332 128.443 627.332 130.338V141.036H621.846Z" fill="url(#paint27_linear_2779_1223)"/>
<path d="M650.875 117.091C649.875 117.091 649.047 116.798 648.39 116.213C647.761 115.628 647.447 114.89 647.447 113.999C647.447 113.107 647.761 112.383 648.39 111.826C649.047 111.241 649.875 110.948 650.875 110.948C651.875 110.948 652.689 111.241 653.318 111.826C653.975 112.383 654.303 113.107 654.303 113.999C654.303 114.89 653.975 115.628 653.318 116.213C652.689 116.798 651.875 117.091 650.875 117.091ZM648.132 141.036V120.309H653.618V141.036H648.132Z" fill="url(#paint28_linear_2779_1223)"/>
<path d="M659.343 141.036V120.309H664.185L664.614 123.819C665.271 122.593 666.214 121.618 667.442 120.894C668.699 120.169 670.17 119.807 671.856 119.807C674.484 119.807 676.527 120.615 677.984 122.231C679.441 123.847 680.169 126.215 680.169 129.335V141.036H674.684V129.836C674.684 128.053 674.313 126.688 673.57 125.741C672.827 124.794 671.67 124.32 670.099 124.32C668.556 124.32 667.285 124.85 666.285 125.908C665.314 126.967 664.828 128.443 664.828 130.338V141.036H659.343Z" fill="url(#paint29_linear_2779_1223)"/>
<path d="M695.742 141.537C693.599 141.537 691.7 141.091 690.043 140.2C688.386 139.308 687.086 138.055 686.143 136.439C685.2 134.823 684.729 132.957 684.729 130.839C684.729 128.694 685.186 126.786 686.1 125.114C687.043 123.443 688.328 122.147 689.957 121.228C691.614 120.281 693.557 119.807 695.785 119.807C697.87 119.807 699.713 120.253 701.313 121.144C702.913 122.036 704.156 123.262 705.041 124.822C705.955 126.354 706.413 128.067 706.413 129.962C706.413 130.268 706.398 130.589 706.37 130.923C706.37 131.257 706.355 131.605 706.327 131.968H690.171C690.285 133.583 690.857 134.851 691.885 135.77C692.942 136.69 694.214 137.149 695.699 137.149C696.813 137.149 697.742 136.913 698.485 136.439C699.256 135.937 699.827 135.297 700.199 134.517H705.77C705.37 135.826 704.698 137.024 703.756 138.11C702.841 139.169 701.699 140.005 700.327 140.618C698.985 141.231 697.456 141.537 695.742 141.537ZM695.785 124.153C694.442 124.153 693.257 124.529 692.228 125.281C691.2 126.006 690.543 127.12 690.257 128.625H700.842C700.756 127.259 700.242 126.173 699.299 125.365C698.356 124.557 697.185 124.153 695.785 124.153Z" fill="url(#paint30_linear_2779_1223)"/>
<path d="M711.026 141.036V120.309H715.911L716.425 124.195C717.197 122.858 718.239 121.799 719.554 121.019C720.896 120.211 722.468 119.807 724.268 119.807V125.449H722.725C721.525 125.449 720.454 125.63 719.511 125.992C718.568 126.354 717.825 126.981 717.282 127.872C716.768 128.764 716.511 130.004 716.511 131.591V141.036H711.026Z" fill="url(#paint31_linear_2779_1223)"/>
<path d="M730.673 150.229L735.601 139.657H734.316L726.045 120.309H732.002L737.958 134.893L744.172 120.309H750L736.501 150.229H730.673Z" fill="url(#paint32_linear_2779_1223)"/>
<path d="M298.077 206.33L289.624 184.391H292.549L299.651 203.541L306.819 184.391H309.679L301.226 206.33H298.077Z" fill="url(#paint33_linear_2779_1223)"/>
<path d="M312.763 206.33V184.391H315.463V206.33H312.763Z" fill="url(#paint34_linear_2779_1223)"/>
<path d="M325.504 206.33V186.554H318.787V184.391H334.921V186.554H328.204V206.33H325.504Z" fill="url(#paint35_linear_2779_1223)"/>
<path d="M353.891 206.706C352.241 206.706 350.805 206.413 349.584 205.828C348.363 205.243 347.42 204.429 346.756 203.384C346.092 202.339 345.759 201.127 345.759 199.748H348.588C348.588 200.605 348.791 201.399 349.198 202.13C349.605 202.841 350.195 203.415 350.966 203.854C351.759 204.272 352.734 204.481 353.891 204.481C355.412 204.481 356.591 204.126 357.426 203.415C358.262 202.705 358.68 201.817 358.68 200.751C358.68 199.874 358.487 199.174 358.101 198.651C357.715 198.108 357.19 197.669 356.526 197.335C355.883 197.001 355.134 196.708 354.276 196.457C353.441 196.207 352.562 195.925 351.641 195.611C349.905 195.026 348.62 194.305 347.784 193.449C346.949 192.571 346.531 191.432 346.531 190.032C346.509 188.862 346.788 187.828 347.366 186.93C347.945 186.01 348.759 185.3 349.809 184.798C350.88 184.276 352.145 184.015 353.602 184.015C355.037 184.015 356.28 184.276 357.33 184.798C358.401 185.321 359.226 186.042 359.805 186.961C360.404 187.88 360.715 188.925 360.737 190.095H357.908C357.908 189.489 357.748 188.894 357.426 188.309C357.105 187.703 356.612 187.212 355.948 186.836C355.305 186.46 354.491 186.272 353.505 186.272C352.284 186.251 351.277 186.554 350.484 187.18C349.713 187.807 349.327 188.674 349.327 189.782C349.327 190.722 349.595 191.443 350.13 191.944C350.688 192.446 351.459 192.864 352.445 193.198C353.43 193.511 354.566 193.877 355.851 194.295C356.923 194.671 357.887 195.11 358.744 195.611C359.601 196.113 360.265 196.76 360.737 197.554C361.229 198.348 361.476 199.362 361.476 200.594C361.476 201.639 361.197 202.632 360.64 203.572C360.083 204.491 359.237 205.243 358.101 205.828C356.987 206.413 355.583 206.706 353.891 206.706Z" fill="url(#paint36_linear_2779_1223)"/>
<path d="M371.443 206.33C369.986 206.33 368.84 205.985 368.004 205.296C367.169 204.606 366.751 203.363 366.751 201.566V193.01H363.987V190.785H366.751L367.104 187.055H369.45V190.785H374.143V193.01H369.45V201.566C369.45 202.548 369.654 203.217 370.061 203.572C370.468 203.906 371.186 204.073 372.215 204.073H373.886V206.33H371.443Z" fill="url(#paint37_linear_2779_1223)"/>
<path d="M383.39 206.706C381.505 206.706 380.005 206.152 378.891 205.045C377.776 203.917 377.219 202.193 377.219 199.874V190.785H379.919V199.592C379.919 202.83 381.28 204.449 384.001 204.449C385.393 204.449 386.54 203.969 387.44 203.008C388.361 202.026 388.822 200.636 388.822 198.839V190.785H391.521V206.33H389.079L388.886 203.541C388.393 204.523 387.654 205.296 386.668 205.86C385.704 206.424 384.611 206.706 383.39 206.706Z" fill="url(#paint38_linear_2779_1223)"/>
<path d="M403.197 206.706C401.611 206.706 400.218 206.351 399.019 205.64C397.84 204.93 396.919 203.958 396.255 202.726C395.612 201.493 395.29 200.093 395.29 198.526C395.29 196.959 395.622 195.569 396.287 194.358C396.951 193.125 397.872 192.164 399.051 191.474C400.229 190.764 401.622 190.409 403.229 190.409C404.536 190.409 405.693 190.67 406.7 191.192C407.707 191.714 408.489 192.446 409.046 193.386V183.764H411.746V206.33H409.303L409.046 203.76C408.532 204.512 407.793 205.191 406.829 205.797C405.864 206.403 404.654 206.706 403.197 206.706ZM403.486 204.418C404.557 204.418 405.5 204.178 406.314 203.697C407.15 203.196 407.793 202.506 408.243 201.629C408.714 200.751 408.95 199.727 408.95 198.557C408.95 197.387 408.714 196.363 408.243 195.486C407.793 194.608 407.15 193.929 406.314 193.449C405.5 192.947 404.557 192.696 403.486 192.696C402.436 192.696 401.493 192.947 400.658 193.449C399.844 193.929 399.201 194.608 398.729 195.486C398.279 196.363 398.054 197.387 398.054 198.557C398.054 199.727 398.279 200.751 398.729 201.629C399.201 202.506 399.844 203.196 400.658 203.697C401.493 204.178 402.436 204.418 403.486 204.418Z" fill="url(#paint39_linear_2779_1223)"/>
<path d="M423.314 206.706C421.793 206.706 420.443 206.372 419.264 205.703C418.086 205.014 417.154 204.063 416.468 202.851C415.804 201.639 415.472 200.208 415.472 198.557C415.472 196.928 415.804 195.507 416.468 194.295C417.132 193.062 418.054 192.111 419.232 191.443C420.432 190.753 421.814 190.409 423.378 190.409C424.921 190.409 426.249 190.753 427.364 191.443C428.499 192.111 429.367 192.999 429.967 194.107C430.567 195.214 430.867 196.405 430.867 197.68C430.867 197.91 430.856 198.139 430.835 198.369C430.835 198.599 430.835 198.86 430.835 199.153H418.14C418.204 200.344 418.482 201.336 418.975 202.13C419.489 202.903 420.121 203.488 420.871 203.885C421.643 204.282 422.457 204.481 423.314 204.481C424.428 204.481 425.36 204.23 426.11 203.729C426.86 203.227 427.406 202.548 427.749 201.691H430.417C429.988 203.133 429.163 204.335 427.942 205.296C426.742 206.236 425.2 206.706 423.314 206.706ZM423.314 192.634C422.028 192.634 420.882 193.02 419.875 193.793C418.889 194.546 418.322 195.653 418.172 197.116H428.199C428.135 195.716 427.642 194.619 426.721 193.825C425.799 193.031 424.664 192.634 423.314 192.634Z" fill="url(#paint40_linear_2779_1223)"/>
<path d="M434.445 206.33V190.785H436.888L437.048 193.574C437.563 192.592 438.302 191.819 439.266 191.255C440.23 190.691 441.323 190.409 442.544 190.409C444.43 190.409 445.93 190.973 447.044 192.101C448.18 193.208 448.747 194.922 448.747 197.241V206.33H446.048V197.523C446.048 194.284 444.676 192.665 441.934 192.665C440.562 192.665 439.416 193.156 438.495 194.138C437.595 195.099 437.145 196.478 437.145 198.275V206.33H434.445Z" fill="url(#paint41_linear_2779_1223)"/>
<path d="M459.137 206.33C457.68 206.33 456.534 205.985 455.698 205.296C454.862 204.606 454.445 203.363 454.445 201.566V193.01H451.681V190.785H454.445L454.798 187.055H457.144V190.785H461.837V193.01H457.144V201.566C457.144 202.548 457.348 203.217 457.755 203.572C458.162 203.906 458.88 204.073 459.908 204.073H461.58V206.33H459.137Z" fill="url(#paint42_linear_2779_1223)"/>
<path d="M483.8 206.706C481.593 206.706 479.686 206.236 478.079 205.296C476.494 204.335 475.262 203.008 474.383 201.315C473.505 199.602 473.065 197.617 473.065 195.36C473.065 193.125 473.505 191.161 474.383 189.468C475.262 187.755 476.494 186.418 478.079 185.457C479.686 184.496 481.593 184.015 483.8 184.015C486.371 184.015 488.46 184.621 490.067 185.833C491.696 187.024 492.735 188.695 493.185 190.847H490.196C489.853 189.489 489.146 188.403 488.075 187.588C487.025 186.752 485.6 186.334 483.8 186.334C482.193 186.334 480.79 186.7 479.59 187.431C478.39 188.142 477.458 189.176 476.794 190.534C476.151 191.871 475.829 193.48 475.829 195.36C475.829 197.241 476.151 198.86 476.794 200.218C477.458 201.556 478.39 202.59 479.59 203.321C480.79 204.032 482.193 204.387 483.8 204.387C485.6 204.387 487.025 203.99 488.075 203.196C489.146 202.381 489.853 201.305 490.196 199.968H493.185C492.735 202.078 491.696 203.729 490.067 204.92C488.46 206.111 486.371 206.706 483.8 206.706Z" fill="url(#paint43_linear_2779_1223)"/>
<path d="M496.904 206.33V183.764H499.604V193.449C500.14 192.488 500.9 191.746 501.886 191.223C502.872 190.68 503.943 190.409 505.1 190.409C506.943 190.409 508.421 190.973 509.535 192.101C510.649 193.208 511.206 194.922 511.206 197.241V206.33H508.539V197.523C508.539 194.284 507.2 192.665 504.521 192.665C503.129 192.665 501.961 193.156 501.018 194.138C500.075 195.099 499.604 196.478 499.604 198.275V206.33H496.904Z" fill="url(#paint44_linear_2779_1223)"/>
<path d="M520.6 206.706C519.271 206.706 518.168 206.487 517.289 206.048C516.411 205.609 515.757 205.024 515.329 204.293C514.9 203.561 514.686 202.767 514.686 201.911C514.686 200.323 515.308 199.101 516.55 198.244C517.793 197.387 519.486 196.959 521.628 196.959H525.935V196.771C525.935 195.413 525.571 194.389 524.842 193.699C524.114 192.989 523.139 192.634 521.918 192.634C520.868 192.634 519.957 192.895 519.186 193.417C518.436 193.919 517.964 194.661 517.772 195.643H515.008C515.115 194.514 515.5 193.564 516.165 192.79C516.85 192.017 517.697 191.432 518.704 191.035C519.711 190.617 520.782 190.409 521.918 190.409C524.146 190.409 525.817 190.994 526.931 192.164C528.067 193.313 528.635 194.849 528.635 196.771V206.33H526.224L526.064 203.541C525.614 204.418 524.949 205.17 524.071 205.797C523.214 206.403 522.057 206.706 520.6 206.706ZM521.018 204.481C522.046 204.481 522.925 204.22 523.653 203.697C524.403 203.175 524.971 202.496 525.357 201.66C525.742 200.824 525.935 199.947 525.935 199.027V198.996H521.853C520.268 198.996 519.143 199.268 518.479 199.811C517.836 200.333 517.514 200.991 517.514 201.785C517.514 202.6 517.814 203.258 518.414 203.76C519.036 204.241 519.903 204.481 521.018 204.481Z" fill="url(#paint45_linear_2779_1223)"/>
<path d="M532.685 213.225V190.785H535.128L535.385 193.355C535.899 192.602 536.627 191.923 537.57 191.317C538.534 190.712 539.756 190.409 541.234 190.409C542.82 190.409 544.202 190.764 545.38 191.474C546.559 192.185 547.469 193.156 548.112 194.389C548.776 195.622 549.108 197.022 549.108 198.589C549.108 200.156 548.776 201.556 548.112 202.788C547.469 204 546.548 204.961 545.348 205.672C544.17 206.361 542.787 206.706 541.202 206.706C539.895 206.706 538.727 206.445 537.699 205.922C536.692 205.4 535.92 204.669 535.385 203.729V213.225H532.685ZM540.913 204.418C541.984 204.418 542.927 204.178 543.741 203.697C544.555 203.196 545.198 202.506 545.669 201.629C546.141 200.751 546.376 199.727 546.376 198.557C546.376 197.387 546.141 196.363 545.669 195.486C545.198 194.608 544.555 193.929 543.741 193.449C542.927 192.947 541.984 192.696 540.913 192.696C539.841 192.696 538.899 192.947 538.084 193.449C537.27 193.929 536.627 194.608 536.156 195.486C535.685 196.363 535.449 197.387 535.449 198.557C535.449 199.727 535.685 200.751 536.156 201.629C536.627 202.506 537.27 203.196 538.084 203.697C538.899 204.178 539.841 204.418 540.913 204.418Z" fill="url(#paint46_linear_2779_1223)"/>
<path d="M558.538 206.33C557.081 206.33 555.935 205.985 555.099 205.296C554.263 204.606 553.846 203.363 553.846 201.566V193.01H551.082V190.785H553.846L554.199 187.055H556.545V190.785H561.238V193.01H556.545V201.566C556.545 202.548 556.749 203.217 557.156 203.572C557.563 203.906 558.281 204.073 559.309 204.073H560.981V206.33H558.538Z" fill="url(#paint47_linear_2779_1223)"/>
<path d="M571.396 206.706C569.874 206.706 568.524 206.372 567.346 205.703C566.167 205.014 565.235 204.063 564.55 202.851C563.886 201.639 563.553 200.208 563.553 198.557C563.553 196.928 563.886 195.507 564.55 194.295C565.214 193.062 566.135 192.111 567.314 191.443C568.514 190.753 569.896 190.409 571.46 190.409C573.003 190.409 574.331 190.753 575.445 191.443C576.581 192.111 577.449 192.999 578.048 194.107C578.648 195.214 578.948 196.405 578.948 197.68C578.948 197.91 578.938 198.139 578.916 198.369C578.916 198.599 578.916 198.86 578.916 199.153H566.221C566.285 200.344 566.564 201.336 567.057 202.13C567.571 202.903 568.203 203.488 568.953 203.885C569.724 204.282 570.538 204.481 571.396 204.481C572.51 204.481 573.442 204.23 574.192 203.729C574.942 203.227 575.488 202.548 575.831 201.691H578.498C578.07 203.133 577.245 204.335 576.024 205.296C574.824 206.236 573.281 206.706 571.396 206.706ZM571.396 192.634C570.11 192.634 568.964 193.02 567.957 193.793C566.971 194.546 566.403 195.653 566.253 197.116H576.281C576.217 195.716 575.724 194.619 574.802 193.825C573.881 193.031 572.745 192.634 571.396 192.634Z" fill="url(#paint48_linear_2779_1223)"/>
<path d="M582.527 206.33V190.785H584.969L585.194 193.762C585.687 192.738 586.437 191.923 587.444 191.317C588.451 190.712 589.694 190.409 591.172 190.409V193.167H590.433C589.49 193.167 588.623 193.334 587.83 193.668C587.037 193.981 586.405 194.525 585.934 195.298C585.462 196.071 585.226 197.136 585.226 198.495V206.33H582.527Z" fill="url(#paint49_linear_2779_1223)"/>
<defs>
<linearGradient id="paint0_linear_2779_1223" x1="750" y1="0" x2="588.111" y2="465.43" gradientUnits="userSpaceOnUse">
<stop offset="0.2" stop-color="#27BAEC"/>
<stop offset="0.8" stop-color="#253EE0"/>
</linearGradient>
<linearGradient id="paint1_linear_2779_1223" x1="750" y1="0" x2="588.111" y2="465.43" gradientUnits="userSpaceOnUse">
<stop offset="0.2" stop-color="#27BAEC"/>
<stop offset="0.8" stop-color="#253EE0"/>
</linearGradient>
<linearGradient id="paint2_linear_2779_1223" x1="750" y1="0" x2="588.111" y2="465.43" gradientUnits="userSpaceOnUse">
<stop offset="0.2" stop-color="#27BAEC"/>
<stop offset="0.8" stop-color="#253EE0"/>
</linearGradient>
<linearGradient id="paint3_linear_2779_1223" x1="750" y1="0" x2="588.111" y2="465.43" gradientUnits="userSpaceOnUse">
<stop offset="0.2" stop-color="#27BAEC"/>
<stop offset="0.8" stop-color="#253EE0"/>
</linearGradient>
<linearGradient id="paint4_linear_2779_1223" x1="750" y1="0" x2="588.111" y2="465.43" gradientUnits="userSpaceOnUse">
<stop offset="0.2" stop-color="#27BAEC"/>
<stop offset="0.8" stop-color="#253EE0"/>
</linearGradient>
<linearGradient id="paint5_linear_2779_1223" x1="750" y1="0" x2="588.111" y2="465.43" gradientUnits="userSpaceOnUse">
<stop offset="0.2" stop-color="#27BAEC"/>
<stop offset="0.8" stop-color="#253EE0"/>
</linearGradient>
<linearGradient id="paint6_linear_2779_1223" x1="750" y1="0" x2="588.111" y2="465.43" gradientUnits="userSpaceOnUse">
<stop offset="0.2" stop-color="#27BAEC"/>
<stop offset="0.8" stop-color="#253EE0"/>
</linearGradient>
<linearGradient id="paint7_linear_2779_1223" x1="750" y1="0" x2="588.111" y2="465.43" gradientUnits="userSpaceOnUse">
<stop offset="0.2" stop-color="#27BAEC"/>
<stop offset="0.8" stop-color="#253EE0"/>
</linearGradient>
<linearGradient id="paint8_linear_2779_1223" x1="750" y1="0" x2="588.111" y2="465.43" gradientUnits="userSpaceOnUse">
<stop offset="0.2" stop-color="#27BAEC"/>
<stop offset="0.8" stop-color="#253EE0"/>
</linearGradient>
<linearGradient id="paint9_linear_2779_1223" x1="750" y1="0" x2="588.111" y2="465.43" gradientUnits="userSpaceOnUse">
<stop offset="0.2" stop-color="#27BAEC"/>
<stop offset="0.8" stop-color="#253EE0"/>
</linearGradient>
<linearGradient id="paint10_linear_2779_1223" x1="750" y1="0" x2="588.111" y2="465.43" gradientUnits="userSpaceOnUse">
<stop offset="0.2" stop-color="#27BAEC"/>
<stop offset="0.8" stop-color="#253EE0"/>
</linearGradient>
<linearGradient id="paint11_linear_2779_1223" x1="750" y1="0" x2="588.111" y2="465.43" gradientUnits="userSpaceOnUse">
<stop offset="0.2" stop-color="#27BAEC"/>
<stop offset="0.8" stop-color="#253EE0"/>
</linearGradient>
<linearGradient id="paint12_linear_2779_1223" x1="750" y1="0" x2="588.111" y2="465.43" gradientUnits="userSpaceOnUse">
<stop offset="0.2" stop-color="#27BAEC"/>
<stop offset="0.8" stop-color="#253EE0"/>
</linearGradient>
<linearGradient id="paint13_linear_2779_1223" x1="750" y1="0" x2="588.111" y2="465.43" gradientUnits="userSpaceOnUse">
<stop offset="0.2" stop-color="#27BAEC"/>
<stop offset="0.8" stop-color="#253EE0"/>
</linearGradient>
<linearGradient id="paint14_linear_2779_1223" x1="750" y1="0" x2="588.111" y2="465.43" gradientUnits="userSpaceOnUse">
<stop offset="0.2" stop-color="#27BAEC"/>
<stop offset="0.8" stop-color="#253EE0"/>
</linearGradient>
<linearGradient id="paint15_linear_2779_1223" x1="750" y1="0" x2="588.111" y2="465.43" gradientUnits="userSpaceOnUse">
<stop offset="0.2" stop-color="#27BAEC"/>
<stop offset="0.8" stop-color="#253EE0"/>
</linearGradient>
<linearGradient id="paint16_linear_2779_1223" x1="750" y1="0" x2="588.111" y2="465.43" gradientUnits="userSpaceOnUse">
<stop offset="0.2" stop-color="#27BAEC"/>
<stop offset="0.8" stop-color="#253EE0"/>
</linearGradient>
<linearGradient id="paint17_linear_2779_1223" x1="750" y1="0" x2="588.111" y2="465.43" gradientUnits="userSpaceOnUse">
<stop offset="0.2" stop-color="#27BAEC"/>
<stop offset="0.8" stop-color="#253EE0"/>
</linearGradient>
<linearGradient id="paint18_linear_2779_1223" x1="750" y1="0" x2="588.111" y2="465.43" gradientUnits="userSpaceOnUse">
<stop offset="0.2" stop-color="#27BAEC"/>
<stop offset="0.8" stop-color="#253EE0"/>
</linearGradient>
<linearGradient id="paint19_linear_2779_1223" x1="750" y1="0" x2="588.111" y2="465.43" gradientUnits="userSpaceOnUse">
<stop offset="0.2" stop-color="#27BAEC"/>
<stop offset="0.8" stop-color="#253EE0"/>
</linearGradient>
<linearGradient id="paint20_linear_2779_1223" x1="750" y1="0" x2="588.111" y2="465.43" gradientUnits="userSpaceOnUse">
<stop offset="0.2" stop-color="#27BAEC"/>
<stop offset="0.8" stop-color="#253EE0"/>
</linearGradient>
<linearGradient id="paint21_linear_2779_1223" x1="750" y1="0" x2="588.111" y2="465.43" gradientUnits="userSpaceOnUse">
<stop offset="0.2" stop-color="#27BAEC"/>
<stop offset="0.8" stop-color="#253EE0"/>
</linearGradient>
<linearGradient id="paint22_linear_2779_1223" x1="750" y1="0" x2="588.111" y2="465.43" gradientUnits="userSpaceOnUse">
<stop offset="0.2" stop-color="#27BAEC"/>
<stop offset="0.8" stop-color="#253EE0"/>
</linearGradient>
<linearGradient id="paint23_linear_2779_1223" x1="750" y1="0" x2="588.111" y2="465.43" gradientUnits="userSpaceOnUse">
<stop offset="0.2" stop-color="#27BAEC"/>
<stop offset="0.8" stop-color="#253EE0"/>
</linearGradient>
<linearGradient id="paint24_linear_2779_1223" x1="750" y1="0" x2="588.111" y2="465.43" gradientUnits="userSpaceOnUse">
<stop offset="0.2" stop-color="#27BAEC"/>
<stop offset="0.8" stop-color="#253EE0"/>
</linearGradient>
<linearGradient id="paint25_linear_2779_1223" x1="750" y1="0" x2="588.111" y2="465.43" gradientUnits="userSpaceOnUse">
<stop offset="0.2" stop-color="#27BAEC"/>
<stop offset="0.8" stop-color="#253EE0"/>
</linearGradient>
<linearGradient id="paint26_linear_2779_1223" x1="750" y1="0" x2="588.111" y2="465.43" gradientUnits="userSpaceOnUse">
<stop offset="0.2" stop-color="#27BAEC"/>
<stop offset="0.8" stop-color="#253EE0"/>
</linearGradient>
<linearGradient id="paint27_linear_2779_1223" x1="750" y1="0" x2="588.111" y2="465.43" gradientUnits="userSpaceOnUse">
<stop offset="0.2" stop-color="#27BAEC"/>
<stop offset="0.8" stop-color="#253EE0"/>
</linearGradient>
<linearGradient id="paint28_linear_2779_1223" x1="750" y1="0" x2="588.111" y2="465.43" gradientUnits="userSpaceOnUse">
<stop offset="0.2" stop-color="#27BAEC"/>
<stop offset="0.8" stop-color="#253EE0"/>
</linearGradient>
<linearGradient id="paint29_linear_2779_1223" x1="750" y1="0" x2="588.111" y2="465.43" gradientUnits="userSpaceOnUse">
<stop offset="0.2" stop-color="#27BAEC"/>
<stop offset="0.8" stop-color="#253EE0"/>
</linearGradient>
<linearGradient id="paint30_linear_2779_1223" x1="750" y1="0" x2="588.111" y2="465.43" gradientUnits="userSpaceOnUse">
<stop offset="0.2" stop-color="#27BAEC"/>
<stop offset="0.8" stop-color="#253EE0"/>
</linearGradient>
<linearGradient id="paint31_linear_2779_1223" x1="750" y1="0" x2="588.111" y2="465.43" gradientUnits="userSpaceOnUse">
<stop offset="0.2" stop-color="#27BAEC"/>
<stop offset="0.8" stop-color="#253EE0"/>
</linearGradient>
<linearGradient id="paint32_linear_2779_1223" x1="750" y1="0" x2="588.111" y2="465.43" gradientUnits="userSpaceOnUse">
<stop offset="0.2" stop-color="#27BAEC"/>
<stop offset="0.8" stop-color="#253EE0"/>
</linearGradient>
<linearGradient id="paint33_linear_2779_1223" x1="750" y1="0" x2="588.111" y2="465.43" gradientUnits="userSpaceOnUse">
<stop offset="0.2" stop-color="#27BAEC"/>
<stop offset="0.8" stop-color="#253EE0"/>
</linearGradient>
<linearGradient id="paint34_linear_2779_1223" x1="750" y1="0" x2="588.111" y2="465.43" gradientUnits="userSpaceOnUse">
<stop offset="0.2" stop-color="#27BAEC"/>
<stop offset="0.8" stop-color="#253EE0"/>
</linearGradient>
<linearGradient id="paint35_linear_2779_1223" x1="750" y1="0" x2="588.111" y2="465.43" gradientUnits="userSpaceOnUse">
<stop offset="0.2" stop-color="#27BAEC"/>
<stop offset="0.8" stop-color="#253EE0"/>
</linearGradient>
<linearGradient id="paint36_linear_2779_1223" x1="750" y1="0" x2="588.111" y2="465.43" gradientUnits="userSpaceOnUse">
<stop offset="0.2" stop-color="#27BAEC"/>
<stop offset="0.8" stop-color="#253EE0"/>
</linearGradient>
<linearGradient id="paint37_linear_2779_1223" x1="750" y1="0" x2="588.111" y2="465.43" gradientUnits="userSpaceOnUse">
<stop offset="0.2" stop-color="#27BAEC"/>
<stop offset="0.8" stop-color="#253EE0"/>
</linearGradient>
<linearGradient id="paint38_linear_2779_1223" x1="750" y1="0" x2="588.111" y2="465.43" gradientUnits="userSpaceOnUse">
<stop offset="0.2" stop-color="#27BAEC"/>
<stop offset="0.8" stop-color="#253EE0"/>
</linearGradient>
<linearGradient id="paint39_linear_2779_1223" x1="750" y1="0" x2="588.111" y2="465.43" gradientUnits="userSpaceOnUse">
<stop offset="0.2" stop-color="#27BAEC"/>
<stop offset="0.8" stop-color="#253EE0"/>
</linearGradient>
<linearGradient id="paint40_linear_2779_1223" x1="750" y1="0" x2="588.111" y2="465.43" gradientUnits="userSpaceOnUse">
<stop offset="0.2" stop-color="#27BAEC"/>
<stop offset="0.8" stop-color="#253EE0"/>
</linearGradient>
<linearGradient id="paint41_linear_2779_1223" x1="750" y1="0" x2="588.111" y2="465.43" gradientUnits="userSpaceOnUse">
<stop offset="0.2" stop-color="#27BAEC"/>
<stop offset="0.8" stop-color="#253EE0"/>
</linearGradient>
<linearGradient id="paint42_linear_2779_1223" x1="750" y1="0" x2="588.111" y2="465.43" gradientUnits="userSpaceOnUse">
<stop offset="0.2" stop-color="#27BAEC"/>
<stop offset="0.8" stop-color="#253EE0"/>
</linearGradient>
<linearGradient id="paint43_linear_2779_1223" x1="750" y1="0" x2="588.111" y2="465.43" gradientUnits="userSpaceOnUse">
<stop offset="0.2" stop-color="#27BAEC"/>
<stop offset="0.8" stop-color="#253EE0"/>
</linearGradient>
<linearGradient id="paint44_linear_2779_1223" x1="750" y1="0" x2="588.111" y2="465.43" gradientUnits="userSpaceOnUse">
<stop offset="0.2" stop-color="#27BAEC"/>
<stop offset="0.8" stop-color="#253EE0"/>
</linearGradient>
<linearGradient id="paint45_linear_2779_1223" x1="750" y1="0" x2="588.111" y2="465.43" gradientUnits="userSpaceOnUse">
<stop offset="0.2" stop-color="#27BAEC"/>
<stop offset="0.8" stop-color="#253EE0"/>
</linearGradient>
<linearGradient id="paint46_linear_2779_1223" x1="750" y1="0" x2="588.111" y2="465.43" gradientUnits="userSpaceOnUse">
<stop offset="0.2" stop-color="#27BAEC"/>
<stop offset="0.8" stop-color="#253EE0"/>
</linearGradient>
<linearGradient id="paint47_linear_2779_1223" x1="750" y1="0" x2="588.111" y2="465.43" gradientUnits="userSpaceOnUse">
<stop offset="0.2" stop-color="#27BAEC"/>
<stop offset="0.8" stop-color="#253EE0"/>
</linearGradient>
<linearGradient id="paint48_linear_2779_1223" x1="750" y1="0" x2="588.111" y2="465.43" gradientUnits="userSpaceOnUse">
<stop offset="0.2" stop-color="#27BAEC"/>
<stop offset="0.8" stop-color="#253EE0"/>
</linearGradient>
<linearGradient id="paint49_linear_2779_1223" x1="750" y1="0" x2="588.111" y2="465.43" gradientUnits="userSpaceOnUse">
<stop offset="0.2" stop-color="#27BAEC"/>
<stop offset="0.8" stop-color="#253EE0"/>
</linearGradient>
</defs>
</svg>
