<svg width="24" height="25" viewBox="0 0 24 25" fill="none" xmlns="http://www.w3.org/2000/svg">
<path d="M19.3259 6.17811C20 7.187 20 8.59147 20 11.4004C20 14.2093 20 15.6138 19.3259 16.6227C19.034 17.0594 18.659 17.4344 18.2223 17.7263C17.3409 18.3152 16.1577 18.3896 14 18.399V18.4004L12.8944 20.6115C12.5259 21.3486 11.4741 21.3486 11.1056 20.6115L10 18.4004V18.399C7.8423 18.3896 6.65907 18.3152 5.77772 17.7263C5.34096 17.4344 4.96596 17.0594 4.67412 16.6227C4 15.6138 4 14.2093 4 11.4004C4 8.59147 4 7.187 4.67412 6.17811C4.96596 5.74135 5.34096 5.36635 5.77772 5.07451C6.78661 4.40039 8.19108 4.40039 11 4.40039H13C15.8089 4.40039 17.2134 4.40039 18.2223 5.07451C18.659 5.36635 19.034 5.74135 19.3259 6.17811Z" stroke="black" stroke-width="2" stroke-linecap="round" stroke-linejoin="round"/>
<path d="M9 9.40039L15 9.40039" stroke="black" stroke-width="2" stroke-linecap="round" stroke-linejoin="round"/>
<path d="M9 13.4004H12" stroke="black" stroke-width="2" stroke-linecap="round" stroke-linejoin="round"/>
</svg>
