<svg width="64" height="64" viewBox="0 0 64 64" fill="none" xmlns="http://www.w3.org/2000/svg">
<g clip-path="url(#clip0_2895_773)">
<path d="M3.32172 13.4336C3.32172 18.6991 7.55239 22.9941 12.7933 23.0985V33.7008C12.7933 34.8401 13.7169 35.7637 14.8562 35.7637C15.9956 35.7637 16.9192 34.8401 16.9192 33.7008V23.1004H31.999C37.3297 23.1004 41.666 18.7642 41.666 13.4336C41.666 12.2943 40.7424 11.3707 39.603 11.3707C38.4637 11.3707 37.5401 12.2942 37.5401 13.4336C37.5401 16.4885 35.054 18.9746 31.999 18.9746H12.9887C9.93378 18.9746 7.44756 16.4885 7.44756 13.4336C7.44756 10.3785 9.93379 7.89244 12.9887 7.89244H20.7619C19.6774 9.43934 19.0405 11.3177 19.0405 13.3408C19.0405 14.4801 19.964 15.4037 21.1034 15.4037C22.2427 15.4037 23.1663 14.4801 23.1663 13.3408C23.1663 10.3442 25.6451 7.89244 28.7073 7.89244H51.0089C54.0638 7.89244 56.5499 10.3785 56.5499 13.4336C56.5499 16.4885 54.0638 18.9746 51.0089 18.9746H43.4048C42.2655 18.9746 41.3419 19.8982 41.3419 21.0375C41.3419 22.1769 42.2655 23.1004 43.4048 23.1004H47.0786V33.7008C47.0786 34.8401 48.0022 35.7637 49.1415 35.7637C50.2809 35.7637 51.2045 34.8401 51.2045 33.7008V23.0985C56.4454 22.9941 60.6759 18.6989 60.6759 13.4336C60.6757 8.10282 56.3397 3.7666 51.0089 3.7666H12.9887C7.65793 3.7666 3.32172 8.10281 3.32172 13.4336Z" fill="#2562E3" stroke="#2562E3"/>
<path d="M55.0154 54.5844L54.3586 54.7225C52.0349 55.2109 50.873 55.4551 49.7111 55.4715C48.6801 55.4861 47.6516 55.3677 46.6511 55.1193C45.5234 54.8394 44.4473 54.3377 42.2952 53.3341L12.4364 39.4108C10.4342 38.4771 9.56801 36.0972 10.5016 34.095C11.4353 32.0929 13.8152 31.2267 15.8173 32.1602L46.224 46.3391C48.1765 47.2495 49.1527 47.7048 50.0184 48.3129C50.787 48.8526 51.4896 49.4807 52.1117 50.1842C52.8127 50.9768 53.374 51.8962 54.4965 53.7348L55.0154 54.5844Z" fill="url(#paint0_linear_2895_773)"/>
<path d="M20.716 34.4445L17.8061 40.6847M55.0154 54.5844L54.3586 54.7225C52.0349 55.2109 50.873 55.4551 49.7111 55.4715C48.6801 55.4861 47.6516 55.3677 46.6511 55.1193C45.5234 54.8394 44.4473 54.3377 42.2952 53.3341L12.4364 39.4108C10.4342 38.4771 9.56801 36.0972 10.5016 34.095C11.4353 32.0929 13.8152 31.2267 15.8173 32.1602L46.224 46.3391C48.1765 47.2495 49.1527 47.7048 50.0184 48.3129C50.787 48.8526 51.4896 49.4807 52.1117 50.1842C52.8127 50.9768 53.374 51.8962 54.4965 53.7348L55.0154 54.5844Z" stroke="url(#paint1_linear_2895_773)" stroke-width="0.5" stroke-linecap="round" stroke-linejoin="round"/>
<path d="M10.5503 54.8571L10.8667 54.2652C11.9862 52.1712 12.546 51.1241 13.2803 50.2235C13.9318 49.4244 14.6836 48.7126 15.517 48.1058C16.4563 47.4218 17.5324 46.92 19.6845 45.9166L49.5432 31.9931C51.5455 31.0595 53.9253 31.9257 54.8591 33.9279C55.7926 35.93 54.9264 38.3099 52.9243 39.2436L22.5176 53.4224C20.5651 54.3329 19.5889 54.7881 18.5666 55.0605C17.6591 55.3023 16.7264 55.4368 15.7875 55.4611C14.7298 55.4886 13.6647 55.3276 11.5347 55.0057L10.5503 54.8571Z" fill="url(#paint2_linear_2895_773)"/>
<path d="M48.0256 41.5279L45.1158 35.2877M10.5503 54.8571L10.8667 54.2652C11.9862 52.1712 12.546 51.1241 13.2803 50.2235C13.9318 49.4244 14.6836 48.7126 15.517 48.1058C16.4563 47.4218 17.5324 46.92 19.6845 45.9166L49.5432 31.9931C51.5455 31.0595 53.9253 31.9257 54.8591 33.9279C55.7926 35.93 54.9264 38.3099 52.9243 39.2436L22.5176 53.4224C20.5651 54.3329 19.5889 54.7881 18.5666 55.0605C17.6591 55.3023 16.7264 55.4368 15.7875 55.4611C14.7298 55.4886 13.6647 55.3276 11.5347 55.0057L10.5503 54.8571Z" stroke="url(#paint3_linear_2895_773)" stroke-width="0.5" stroke-linecap="round" stroke-linejoin="round"/>
</g>
<defs>
<linearGradient id="paint0_linear_2895_773" x1="42.8224" y1="21.0845" x2="21.5303" y2="67.051" gradientUnits="userSpaceOnUse">
<stop offset="0.2" stop-color="#27BAEC"/>
<stop offset="0.8" stop-color="#253EE0"/>
</linearGradient>
<linearGradient id="paint1_linear_2895_773" x1="42.8224" y1="21.0845" x2="21.5303" y2="67.051" gradientUnits="userSpaceOnUse">
<stop offset="0.2" stop-color="#27BAEC"/>
<stop offset="0.8" stop-color="#253EE0"/>
</linearGradient>
<linearGradient id="paint2_linear_2895_773" x1="56.3606" y1="33.2277" x2="10.3473" y2="54.4163" gradientUnits="userSpaceOnUse">
<stop offset="0.2" stop-color="#27BAEC"/>
<stop offset="0.8" stop-color="#253EE0"/>
</linearGradient>
<linearGradient id="paint3_linear_2895_773" x1="56.3606" y1="33.2277" x2="10.3473" y2="54.4163" gradientUnits="userSpaceOnUse">
<stop offset="0.2" stop-color="#27BAEC"/>
<stop offset="0.8" stop-color="#253EE0"/>
</linearGradient>
<clipPath id="clip0_2895_773">
<rect width="64" height="64" fill="white"/>
</clipPath>
</defs>
</svg>
