<svg width="24" height="25" viewBox="0 0 24 25" fill="none" xmlns="http://www.w3.org/2000/svg">
<path d="M4.45067 14.3086L11.4033 20.8398C11.6428 21.0648 11.7625 21.1773 11.9037 21.205C11.9673 21.2175 12.0327 21.2175 12.0963 21.205C12.2375 21.1773 12.3572 21.0648 12.5967 20.8398L19.5493 14.3086C21.5055 12.471 21.743 9.44699 20.0978 7.32646L19.7885 6.92773C17.8203 4.39097 13.8696 4.8164 12.4867 7.71404C12.2913 8.12335 11.7087 8.12335 11.5133 7.71404C10.1304 4.8164 6.17972 4.39097 4.21154 6.92774L3.90219 7.32646C2.25695 9.44699 2.4945 12.471 4.45067 14.3086Z" stroke="black" stroke-width="2"/>
</svg>
